# 3ds Max Wavefront OBJ Exporter v0.97b - (c)2007 guruware
# File Created: 09.12.2010 12:47:42

#
# object missile
#

v  0.0129 -0.0882 0.1315
v  3.0927 -0.0882 0.1361
v  3.0927 -0.0464 0.1574
v  0.0128 -0.0464 0.1528
v  0.0129 -0.1214 0.0984
v  3.0928 -0.1214 0.1030
v  0.0130 -0.1427 0.0565
v  3.0928 -0.1427 0.0611
v  0.0130 -0.1500 0.0102
v  3.0929 -0.1500 0.0148
v  0.0131 -0.1427 -0.0362
v  3.0930 -0.1427 -0.0316
v  0.0132 -0.1214 -0.0780
v  3.0930 -0.1214 -0.0734
v  0.0132 -0.0882 -0.1112
v  3.0931 -0.0882 -0.1066
v  0.0133 -0.0464 -0.1325
v  3.0931 -0.0464 -0.1279
v  0.0133 0.0000 -0.1398
v  3.0931 0.0000 -0.1352
v  0.0133 0.0464 -0.1325
v  3.0931 0.0464 -0.1279
v  0.0132 0.0882 -0.1112
v  3.0931 0.0882 -0.1066
v  0.0132 0.1214 -0.0780
v  3.0930 0.1214 -0.0734
v  0.0131 0.1427 -0.0362
v  3.0930 0.1427 -0.0316
v  0.0130 0.1500 0.0102
v  3.0929 0.1500 0.0148
v  0.0130 0.1427 0.0565
v  3.0928 0.1427 0.0611
v  0.0129 0.1214 0.0984
v  3.0928 0.1214 0.1030
v  0.0129 0.0882 0.1315
v  3.0927 0.0882 0.1361
v  0.0128 0.0464 0.1528
v  3.0927 0.0464 0.1574
v  0.0128 0.0000 0.1602
v  3.0927 0.0000 0.1648
v  0.0130 0.0000 0.0102
v  3.0929 0.0000 0.0148
v  0.0449 0.0218 0.4737
v  0.0449 -0.0232 0.4737
v  0.1182 -0.0232 0.4738
v  0.1182 0.0218 0.4738
v  0.0454 -0.0232 0.1352
v  0.3838 -0.0232 0.1358
v  0.0454 0.0218 0.1352
v  0.3838 0.0218 0.1358
v  0.0456 -0.4642 0.0329
v  0.0456 -0.4642 -0.0124
v  0.1190 -0.4642 -0.0123
v  0.1189 -0.4642 0.0330
v  0.0456 -0.1257 -0.0124
v  0.3840 -0.1257 -0.0119
v  0.0456 -0.1257 0.0329
v  0.3840 -0.1257 0.0334
v  0.0456 0.4627 -0.0124
v  0.0456 0.4627 0.0329
v  0.1189 0.4627 0.0330
v  0.1190 0.4627 -0.0123
v  0.0456 0.1243 0.0329
v  0.3840 0.1243 0.0334
v  0.0456 0.1243 -0.0124
v  0.3840 0.1243 -0.0119
v  0.0463 -0.0232 -0.4532
v  0.0463 0.0218 -0.4532
v  0.1196 0.0218 -0.4531
v  0.1196 -0.0232 -0.4531
v  0.0458 0.0218 -0.1148
v  0.3842 0.0218 -0.1143
v  0.0458 -0.0232 -0.1148
v  0.3842 -0.0232 -0.1143
# 74 vertices

vn -0.0012 -0.5878 0.8090
vn -0.0014 -0.3090 0.9511
vn -0.0009 -0.8090 0.5878
vn -0.0005 -0.9511 0.3090
vn 0.0000 -1.0000 -0.0000
vn 0.0005 -0.9511 -0.3090
vn 0.0009 -0.8090 -0.5878
vn 0.0012 -0.5878 -0.8090
vn 0.0014 -0.3090 -0.9511
vn 0.0015 0.0000 -1.0000
vn 0.0014 0.3090 -0.9511
vn 0.0012 0.5878 -0.8090
vn 0.0009 0.8090 -0.5878
vn 0.0005 0.9511 -0.3090
vn 0.0000 1.0000 -0.0000
vn -0.0005 0.9511 0.3090
vn -0.0009 0.8090 0.5878
vn -0.0012 0.5878 0.8090
vn -0.0014 0.3090 0.9511
vn -0.0015 0.0000 1.0000
vn -1.0000 0.0000 -0.0015
vn 1.0000 0.0000 0.0015
vn 0.7863 0.0000 0.6178
vn 0.7872 -0.6167 0.0012
vn 0.7872 0.6167 0.0012
vn 0.7882 0.0000 -0.6155
# 26 vertex normals

vt 0.0500 0.1592 0.0000
vt 0.0500 0.4775 0.0000
vt 0.0000 0.4775 0.0000
vt 0.0000 0.1592 0.0000
vt 0.1000 0.1592 0.0000
vt 0.1000 0.4775 0.0000
vt 0.1500 0.1592 0.0000
vt 0.1500 0.4775 0.0000
vt 0.2000 0.1592 0.0000
vt 0.2000 0.4775 0.0000
vt 0.2500 0.1592 0.0000
vt 0.2500 0.4775 0.0000
vt 0.3000 0.1592 0.0000
vt 0.3000 0.4775 0.0000
vt 0.3500 0.1592 0.0000
vt 0.3500 0.4775 0.0000
vt 0.4000 0.1592 0.0000
vt 0.4000 0.4775 0.0000
vt 0.4500 0.1592 0.0000
vt 0.4500 0.4775 0.0000
vt 0.5000 0.1592 0.0000
vt 0.5000 0.4775 0.0000
vt 0.5500 0.1592 0.0000
vt 0.5500 0.4775 0.0000
vt 0.6000 0.1592 0.0000
vt 0.6000 0.4775 0.0000
vt 0.6500 0.1592 0.0000
vt 0.6500 0.4775 0.0000
vt 0.7000 0.1592 0.0000
vt 0.7000 0.4775 0.0000
vt 0.7500 0.1592 0.0000
vt 0.7500 0.4775 0.0000
vt 0.8000 0.1592 0.0000
vt 0.8000 0.4775 0.0000
vt 0.8500 0.1592 0.0000
vt 0.8500 0.4775 0.0000
vt 0.9000 0.1592 0.0000
vt 0.9000 0.4775 0.0000
vt 0.9500 0.1592 0.0000
vt 0.9500 0.4775 0.0000
vt 1.0000 0.1592 0.0000
vt 1.0000 0.4775 0.0000
vt 0.5000 0.0000 0.0000
vt 0.5000 0.6366 0.0000
vt 1.0000 0.0000 0.0000
vt 1.0000 1.0000 0.0000
vt 0.0000 1.0000 0.0000
vt 0.0000 0.0000 0.0000
vt 1.0000 2.0000 0.0000
vt 0.0000 2.0000 0.0000
vt 1.0000 3.0000 0.0000
vt 0.0000 3.0000 0.0000
vt 1.0000 4.0000 0.0000
vt 0.0000 4.0000 0.0000
vt 2.0000 0.0000 0.0000
vt 2.0000 1.0000 0.0000
vt -1.0000 1.0000 0.0000
vt -1.0000 0.0000 0.0000
# 58 texture coords

g missile
s 1
f 1/1/1 2/2/1 3/3/2 
f 3/3/2 4/4/2 1/1/1 
f 5/5/3 6/6/3 2/2/1 
f 2/2/1 1/1/1 5/5/3 
f 7/7/4 8/8/4 6/6/3 
f 6/6/3 5/5/3 7/7/4 
f 9/9/5 10/10/5 8/8/4 
f 8/8/4 7/7/4 9/9/5 
f 11/11/6 12/12/6 10/10/5 
f 10/10/5 9/9/5 11/11/6 
f 13/13/7 14/14/7 12/12/6 
f 12/12/6 11/11/6 13/13/7 
f 15/15/8 16/16/8 14/14/7 
f 14/14/7 13/13/7 15/15/8 
f 17/17/9 18/18/9 16/16/8 
f 16/16/8 15/15/8 17/17/9 
f 19/19/10 20/20/10 18/18/9 
f 18/18/9 17/17/9 19/19/10 
f 21/21/11 22/22/11 20/20/10 
f 20/20/10 19/19/10 21/21/11 
f 23/23/12 24/24/12 22/22/11 
f 22/22/11 21/21/11 23/23/12 
f 25/25/13 26/26/13 24/24/12 
f 24/24/12 23/23/12 25/25/13 
f 27/27/14 28/28/14 26/26/13 
f 26/26/13 25/25/13 27/27/14 
f 29/29/15 30/30/15 28/28/14 
f 28/28/14 27/27/14 29/29/15 
f 31/31/16 32/32/16 30/30/15 
f 30/30/15 29/29/15 31/31/16 
f 33/33/17 34/34/17 32/32/16 
f 32/32/16 31/31/16 33/33/17 
f 35/35/18 36/36/18 34/34/17 
f 34/34/17 33/33/17 35/35/18 
f 37/37/19 38/38/19 36/36/18 
f 36/36/18 35/35/18 37/37/19 
f 39/39/20 40/40/20 38/38/19 
f 38/38/19 37/37/19 39/39/20 
f 4/41/2 3/42/2 40/40/20 
f 40/40/20 39/39/20 4/41/2 
s 2
f 1/1/21 4/4/21 41/43/21 
f 5/5/21 1/1/21 41/43/21 
f 7/7/21 5/5/21 41/43/21 
f 9/9/21 7/7/21 41/43/21 
f 11/11/21 9/9/21 41/43/21 
f 13/13/21 11/11/21 41/43/21 
f 15/15/21 13/13/21 41/43/21 
f 17/17/21 15/15/21 41/43/21 
f 19/19/21 17/17/21 41/43/21 
f 21/21/21 19/19/21 41/43/21 
f 23/23/21 21/21/21 41/43/21 
f 25/25/21 23/23/21 41/43/21 
f 27/27/21 25/25/21 41/43/21 
f 29/29/21 27/27/21 41/43/21 
f 31/31/21 29/29/21 41/43/21 
f 33/33/21 31/31/21 41/43/21 
f 35/35/21 33/33/21 41/43/21 
f 37/37/21 35/35/21 41/43/21 
f 39/39/21 37/37/21 41/43/21 
f 4/41/21 39/39/21 41/43/21 
s 3
f 3/3/22 2/2/22 42/44/22 
f 2/2/22 6/6/22 42/44/22 
f 6/6/22 8/8/22 42/44/22 
f 8/8/22 10/10/22 42/44/22 
f 10/10/22 12/12/22 42/44/22 
f 12/12/22 14/14/22 42/44/22 
f 14/14/22 16/16/22 42/44/22 
f 16/16/22 18/18/22 42/44/22 
f 18/18/22 20/20/22 42/44/22 
f 20/20/22 22/22/22 42/44/22 
f 22/22/22 24/24/22 42/44/22 
f 24/24/22 26/26/22 42/44/22 
f 26/26/22 28/28/22 42/44/22 
f 28/28/22 30/30/22 42/44/22 
f 30/30/22 32/32/22 42/44/22 
f 32/32/22 34/34/22 42/44/22 
f 34/34/22 36/36/22 42/44/22 
f 36/36/22 38/38/22 42/44/22 
f 38/38/22 40/40/22 42/44/22 
f 40/40/22 3/42/22 42/44/22 
s off
f 43/45/20 44/46/20 45/47/20 
f 45/47/20 46/48/20 43/45/20 
f 45/47/5 44/46/5 47/49/5 
f 47/49/5 48/50/5 45/47/5 
f 47/49/10 49/51/10 50/52/10 
f 50/52/10 48/50/10 47/49/10 
f 49/51/15 43/53/15 46/54/15 
f 46/54/15 50/52/15 49/51/15 
f 49/55/21 47/56/21 44/46/21 
f 44/46/21 43/45/21 49/55/21 
f 46/48/23 45/47/23 48/57/23 
f 48/57/23 50/58/23 46/48/23 
f 51/45/5 52/46/5 53/47/5 
f 53/47/5 54/48/5 51/45/5 
f 53/47/10 52/46/10 55/49/10 
f 55/49/10 56/50/10 53/47/10 
f 55/49/15 57/51/15 58/52/15 
f 58/52/15 56/50/15 55/49/15 
f 57/51/20 51/53/20 54/54/20 
f 54/54/20 58/52/20 57/51/20 
f 57/55/21 55/56/21 52/46/21 
f 52/46/21 51/45/21 57/55/21 
f 54/48/24 53/47/24 56/57/24 
f 56/57/24 58/58/24 54/48/24 
f 59/45/15 60/46/15 61/47/15 
f 61/47/15 62/48/15 59/45/15 
f 61/47/20 60/46/20 63/49/20 
f 63/49/20 64/50/20 61/47/20 
f 63/49/5 65/51/5 66/52/5 
f 66/52/5 64/50/5 63/49/5 
f 65/51/10 59/53/10 62/54/10 
f 62/54/10 66/52/10 65/51/10 
f 65/55/21 63/56/21 60/46/21 
f 60/46/21 59/45/21 65/55/21 
f 62/48/25 61/47/25 64/57/25 
f 64/57/25 66/58/25 62/48/25 
f 67/45/10 68/46/10 69/47/10 
f 69/47/10 70/48/10 67/45/10 
f 69/47/15 68/46/15 71/49/15 
f 71/49/15 72/50/15 69/47/15 
f 71/49/20 73/51/20 74/52/20 
f 74/52/20 72/50/20 71/49/20 
f 73/51/5 67/53/5 70/54/5 
f 70/54/5 74/52/5 73/51/5 
f 73/55/21 71/56/21 68/46/21 
f 68/46/21 67/45/21 73/55/21 
f 70/48/26 69/47/26 72/57/26 
f 72/57/26 74/58/26 70/48/26 
# 128 faces

