# 3ds Max Wavefront OBJ Exporter v0.97b - (c)2007 guruware
# File Created: 13.12.2010 17:50:33

#
# object newboat_whole
#

v  0.6436 31.6688 42.8249
v  2.0226 35.3308 44.8759
v  0.6436 32.7138 14.1179
v  2.0226 36.4218 14.8919
v  0.6436 33.7578 -14.5901
v  2.0226 37.5128 -15.0921
v  0.6436 34.8018 -43.2971
v  2.0226 38.6028 -45.0771
v  3.2176 39.0058 46.7169
v  3.2176 40.1378 15.5959
v  3.2176 41.2698 -15.5251
v  3.2176 42.4028 -46.6451
v  4.2266 42.6578 48.3369
v  4.2266 43.8258 16.2259
v  4.2266 44.9938 -15.8851
v  4.2266 46.1618 -47.9961
v  5.0496 46.2548 49.7279
v  5.0496 47.4538 16.7779
v  5.0496 48.6518 -16.1721
v  5.0496 49.8508 -49.1221
v  5.6926 49.7728 50.8839
v  5.6926 50.9968 17.2499
v  5.6926 52.2208 -16.3851
v  5.6926 53.4438 -50.0191
v  6.1616 53.1938 51.7989
v  6.1616 54.4358 17.6379
v  6.1616 55.6788 -16.5231
v  6.1616 56.9218 -50.6841
v  6.4656 56.5018 52.4699
v  6.4656 57.7578 17.9419
v  6.4656 59.0148 -16.5851
v  6.4656 60.2708 -51.1121
v  6.6146 59.6908 52.8919
v  6.6146 60.9538 18.1609
v  6.6146 62.2178 -16.5701
v  6.6146 63.4808 -51.3011
v  6.6206 62.7548 53.0649
v  6.6206 64.0198 18.2929
v  6.6206 65.2848 -16.4791
v  6.6206 66.5498 -51.2511
v  6.4936 65.6938 52.9879
v  6.4936 66.9538 18.3379
v  6.4936 68.2148 -16.3111
v  6.4936 69.4748 -50.9611
v  6.2486 68.5098 52.6619
v  6.2486 69.7608 18.2979
v  6.2486 71.0108 -16.0671
v  6.2486 72.2608 -50.4311
v  5.8956 71.2108 52.0889
v  5.8956 72.4448 18.1719
v  5.8956 73.6788 -15.7461
v  5.8956 74.9128 -49.6641
v  5.4496 73.8038 51.2739
v  5.4496 75.0158 17.9619
v  5.4496 76.2278 -15.3501
v  5.4496 77.4398 -48.6621
v  4.9206 76.2998 50.2189
v  4.9206 77.4838 17.6699
v  4.9206 78.6678 -14.8791
v  4.9206 79.8518 -47.4291
v  4.3226 78.7098 48.9329
v  4.3226 79.8608 17.2979
v  4.3226 81.0118 -14.3361
v  4.3226 82.1618 -45.9701
v  3.6676 81.0478 47.4199
v  3.6676 82.1598 16.8489
v  3.6676 83.2718 -13.7211
v  3.6676 84.3848 -44.2921
v  2.9666 83.3288 45.6889
v  2.9666 84.3968 16.3259
v  2.9666 85.4658 -13.0371
v  2.9666 86.5338 -42.4001
v  2.2316 85.5678 43.7499
v  2.2316 86.5868 15.7319
v  2.2316 87.6068 -12.2851
v  2.2316 88.6258 -40.3041
v  1.4746 87.7808 41.6129
v  1.4746 88.7458 15.0719
v  1.4746 89.7118 -11.4701
v  1.4746 90.6768 -38.0111
v  0.7056 89.9828 39.2869
# 81 vertices

vn -0.9381 0.3463 0.0126
vn -0.9431 0.3323 0.0121
vn -0.9455 0.3253 0.0118
vn -0.9479 0.3183 0.0116
vn -0.9569 0.2903 0.0106
vn -0.9590 0.2833 0.0103
vn -0.9610 0.2763 0.0101
vn -0.9686 0.2483 0.0090
vn -0.9704 0.2413 0.0088
vn -0.9721 0.2343 0.0085
vn -0.9785 0.2061 0.0075
vn -0.9800 0.1990 0.0072
vn -0.9814 0.1919 0.0070
vn -0.9865 0.1634 0.0059
vn -0.9877 0.1562 0.0057
vn -0.9888 0.1490 0.0054
vn -0.9928 0.1200 0.0044
vn -0.9936 0.1127 0.0041
vn -0.9944 0.1054 0.0038
vn -0.9971 0.0761 0.0028
vn -0.9976 0.0687 0.0025
vn -0.9981 0.0613 0.0022
vn -0.9995 0.0316 0.0012
vn -0.9997 0.0241 0.0009
vn -0.9999 0.0167 0.0006
vn -0.9999 -0.0131 -0.0005
vn -0.9998 -0.0206 -0.0007
vn -0.9996 -0.0280 -0.0010
vn -0.9983 -0.0577 -0.0021
vn -0.9979 -0.0651 -0.0024
vn -0.9974 -0.0725 -0.0026
vn -0.9948 -0.1016 -0.0037
vn -0.9941 -0.1088 -0.0040
vn -0.9932 -0.1160 -0.0042
vn -0.9895 -0.1442 -0.0052
vn -0.9885 -0.1511 -0.0055
vn -0.9874 -0.1579 -0.0057
vn -0.9828 -0.1846 -0.0067
vn -0.9816 -0.1910 -0.0069
vn -0.9803 -0.1974 -0.0072
vn -0.9750 -0.2219 -0.0081
vn -0.9737 -0.2278 -0.0083
vn -0.9723 -0.2336 -0.0085
vn -0.9668 -0.2555 -0.0093
vn -0.9654 -0.2606 -0.0095
vn -0.9640 -0.2657 -0.0097
vn -0.9587 -0.2844 -0.0103
vn -0.9574 -0.2886 -0.0105
vn -0.9561 -0.2928 -0.0107
vn -0.9514 -0.3079 -0.0112
vn -0.9503 -0.3111 -0.0113
vn -0.9492 -0.3144 -0.0114
vn -0.9455 -0.3254 -0.0118
vn -0.9447 -0.3276 -0.0119
vn -0.9439 -0.3299 -0.0120
vn -0.9416 -0.3366 -0.0122
vn -0.9414 -0.3370 -0.0123
vn -0.9412 -0.3377 -0.0123
vn -0.9399 -0.3411 -0.0124
# 59 vertex normals

vt 0.9019 0.0000 0.0000
vt 0.9215 0.0621 0.0000
vt 0.6268 0.0177 0.0000
vt 0.6342 0.0805 0.0000
vt 0.3518 0.0354 0.0000
vt 0.3469 0.0990 0.0000
vt 0.0767 0.0531 0.0000
vt 0.0596 0.1175 0.0000
vt 0.9392 0.1243 0.0000
vt 0.6410 0.1435 0.0000
vt 0.3428 0.1627 0.0000
vt 0.0446 0.1819 0.0000
vt 0.9547 0.1862 0.0000
vt 0.6470 0.2060 0.0000
vt 0.3393 0.2258 0.0000
vt 0.0317 0.2456 0.0000
vt 0.9680 0.2472 0.0000
vt 0.6523 0.2675 0.0000
vt 0.3366 0.2878 0.0000
vt 0.0209 0.3081 0.0000
vt 0.9791 0.3068 0.0000
vt 0.6568 0.3275 0.0000
vt 0.3346 0.3483 0.0000
vt 0.0123 0.3690 0.0000
vt 0.9879 0.3648 0.0000
vt 0.6606 0.3858 0.0000
vt 0.3332 0.4069 0.0000
vt 0.0059 0.4280 0.0000
vt 0.9943 0.4208 0.0000
vt 0.6635 0.4421 0.0000
vt 0.3326 0.4634 0.0000
vt 0.0018 0.4847 0.0000
vt 0.9983 0.4749 0.0000
vt 0.6656 0.4963 0.0000
vt 0.3328 0.5177 0.0000
vt 0.0000 0.5391 0.0000
vt 1.0000 0.5268 0.0000
vt 0.6668 0.5482 0.0000
vt 0.3337 0.5697 0.0000
vt 0.0005 0.5911 0.0000
vt 0.9993 0.5766 0.0000
vt 0.6673 0.5980 0.0000
vt 0.3353 0.6193 0.0000
vt 0.0033 0.6407 0.0000
vt 0.9961 0.6243 0.0000
vt 0.6669 0.6455 0.0000
vt 0.3376 0.6667 0.0000
vt 0.0083 0.6879 0.0000
vt 0.9907 0.6701 0.0000
vt 0.6657 0.6910 0.0000
vt 0.3407 0.7119 0.0000
vt 0.0157 0.7328 0.0000
vt 0.9828 0.7141 0.0000
vt 0.6637 0.7346 0.0000
vt 0.3445 0.7551 0.0000
vt 0.0253 0.7757 0.0000
vt 0.9727 0.7563 0.0000
vt 0.6609 0.7764 0.0000
vt 0.3490 0.7965 0.0000
vt 0.0371 0.8165 0.0000
vt 0.9604 0.7972 0.0000
vt 0.6573 0.8167 0.0000
vt 0.3542 0.8362 0.0000
vt 0.0511 0.8557 0.0000
vt 0.9459 0.8368 0.0000
vt 0.6530 0.8557 0.0000
vt 0.3601 0.8745 0.0000
vt 0.0672 0.8934 0.0000
vt 0.9293 0.8755 0.0000
vt 0.6480 0.8936 0.0000
vt 0.3666 0.9117 0.0000
vt 0.0853 0.9298 0.0000
vt 0.9108 0.9134 0.0000
vt 0.6423 0.9307 0.0000
vt 0.3738 0.9480 0.0000
vt 0.1054 0.9652 0.0000
vt 0.8903 0.9509 0.0000
vt 0.6360 0.9673 0.0000
vt 0.3817 0.9836 0.0000
vt 0.1273 1.0000 0.0000
vt 0.8680 0.9882 0.0000
# 81 texture coords

g newboat_whole
s off
f 1/1/1 2/2/2 3/3/1 
f 3/3/1 2/2/2 4/4/3 
f 3/3/1 4/4/3 5/5/1 
f 5/5/1 4/4/3 6/6/3 
f 5/5/1 6/6/3 7/7/1 
f 7/7/1 6/6/3 8/8/4 
f 2/2/2 9/9/5 4/4/3 
f 4/4/3 9/9/5 10/10/6 
f 4/4/3 10/10/6 6/6/3 
f 6/6/3 10/10/6 11/11/6 
f 6/6/3 11/11/6 8/8/4 
f 8/8/4 11/11/6 12/12/7 
f 9/9/5 13/13/8 10/10/6 
f 10/10/6 13/13/8 14/14/9 
f 10/10/6 14/14/9 11/11/6 
f 11/11/6 14/14/9 15/15/9 
f 11/11/6 15/15/9 12/12/7 
f 12/12/7 15/15/9 16/16/10 
f 13/13/8 17/17/11 14/14/9 
f 14/14/9 17/17/11 18/18/12 
f 14/14/9 18/18/12 15/15/9 
f 15/15/9 18/18/12 19/19/12 
f 15/15/9 19/19/12 16/16/10 
f 16/16/10 19/19/12 20/20/13 
f 17/17/11 21/21/14 18/18/12 
f 18/18/12 21/21/14 22/22/15 
f 18/18/12 22/22/15 19/19/12 
f 19/19/12 22/22/15 23/23/15 
f 19/19/12 23/23/15 20/20/13 
f 20/20/13 23/23/15 24/24/16 
f 21/21/14 25/25/17 22/22/15 
f 22/22/15 25/25/17 26/26/18 
f 22/22/15 26/26/18 23/23/15 
f 23/23/15 26/26/18 27/27/18 
f 23/23/15 27/27/18 24/24/16 
f 24/24/16 27/27/18 28/28/19 
f 25/25/17 29/29/20 26/26/18 
f 26/26/18 29/29/20 30/30/21 
f 26/26/18 30/30/21 27/27/18 
f 27/27/18 30/30/21 31/31/21 
f 27/27/18 31/31/21 28/28/19 
f 28/28/19 31/31/21 32/32/22 
f 29/29/20 33/33/23 30/30/21 
f 30/30/21 33/33/23 34/34/24 
f 30/30/21 34/34/24 31/31/21 
f 31/31/21 34/34/24 35/35/24 
f 31/31/21 35/35/24 32/32/22 
f 32/32/22 35/35/24 36/36/25 
f 33/33/23 37/37/26 34/34/24 
f 34/34/24 37/37/26 38/38/27 
f 34/34/24 38/38/27 35/35/24 
f 35/35/24 38/38/27 39/39/27 
f 35/35/24 39/39/27 36/36/25 
f 36/36/25 39/39/27 40/40/28 
f 37/37/26 41/41/29 38/38/27 
f 38/38/27 41/41/29 42/42/30 
f 38/38/27 42/42/30 39/39/27 
f 39/39/27 42/42/30 43/43/30 
f 39/39/27 43/43/30 40/40/28 
f 40/40/28 43/43/30 44/44/31 
f 41/41/29 45/45/32 42/42/30 
f 42/42/30 45/45/32 46/46/33 
f 42/42/30 46/46/33 43/43/30 
f 43/43/30 46/46/33 47/47/33 
f 43/43/30 47/47/33 44/44/31 
f 44/44/31 47/47/33 48/48/34 
f 45/45/32 49/49/35 46/46/33 
f 46/46/33 49/49/35 50/50/36 
f 46/46/33 50/50/36 47/47/33 
f 47/47/33 50/50/36 51/51/36 
f 47/47/33 51/51/36 48/48/34 
f 48/48/34 51/51/36 52/52/37 
f 49/49/35 53/53/38 50/50/36 
f 50/50/36 53/53/38 54/54/39 
f 50/50/36 54/54/39 51/51/36 
f 51/51/36 54/54/39 55/55/39 
f 51/51/36 55/55/39 52/52/37 
f 52/52/37 55/55/39 56/56/40 
f 53/53/38 57/57/41 54/54/39 
f 54/54/39 57/57/41 58/58/42 
f 54/54/39 58/58/42 55/55/39 
f 55/55/39 58/58/42 59/59/42 
f 55/55/39 59/59/42 56/56/40 
f 56/56/40 59/59/42 60/60/43 
f 57/57/41 61/61/44 58/58/42 
f 58/58/42 61/61/44 62/62/45 
f 58/58/42 62/62/45 59/59/42 
f 59/59/42 62/62/45 63/63/45 
f 59/59/42 63/63/45 60/60/43 
f 60/60/43 63/63/45 64/64/46 
f 61/61/44 65/65/47 62/62/45 
f 62/62/45 65/65/47 66/66/48 
f 62/62/45 66/66/48 63/63/45 
f 63/63/45 66/66/48 67/67/48 
f 63/63/45 67/67/48 64/64/46 
f 64/64/46 67/67/48 68/68/49 
f 65/65/47 69/69/50 66/66/48 
f 66/66/48 69/69/50 70/70/51 
f 66/66/48 70/70/51 67/67/48 
f 67/67/48 70/70/51 71/71/51 
f 67/67/48 71/71/51 68/68/49 
f 68/68/49 71/71/51 72/72/52 
f 69/69/50 73/73/53 70/70/51 
f 70/70/51 73/73/53 74/74/54 
f 70/70/51 74/74/54 71/71/51 
f 71/71/51 74/74/54 75/75/54 
f 71/71/51 75/75/54 72/72/52 
f 72/72/52 75/75/54 76/76/55 
f 73/73/53 77/77/56 74/74/54 
f 74/74/54 77/77/56 78/78/57 
f 74/74/54 78/78/57 75/75/54 
f 75/75/54 78/78/57 79/79/57 
f 75/75/54 79/79/57 76/76/55 
f 76/76/55 79/79/57 80/80/58 
f 77/77/56 81/81/59 78/78/57 
f 78/78/57 81/81/59 79/79/57 
f 79/79/57 81/81/59 80/80/58 
# 117 faces

