# 3ds Max Wavefront OBJ Exporter v0.97b - (c)2007 guruware
# File Created: 13.12.2010 17:49:10

#
# object newboat_whole
#

v  100.6436 15.0538 -0.1231
v  90.6976 14.0168 0.7879
v  100.6626 14.8268 -0.2371
v  90.9126 11.9578 -0.2471
v  100.6436 15.0538 -0.3491
v  90.6976 14.0168 -1.2601
v  80.7646 12.8628 1.8019
v  81.2396 8.7688 -0.2591
v  80.7646 12.8628 -2.2741
v  70.8376 11.6548 2.7649
v  71.5706 5.6308 -0.2691
v  70.8376 11.6548 -3.2371
v  60.9096 10.4548 3.5219
v  61.8216 2.9098 -0.2781
v  60.9096 10.4548 -3.9941
v  50.9736 9.3278 3.9209
v  51.9206 0.9738 -0.2821
v  50.9736 9.3278 -4.3931
v  41.0226 8.3368 3.9669
v  41.8656 -0.1202 -0.2831
v  41.0226 8.3368 -4.4391
v  31.0546 7.5438 3.8159
v  31.7036 -0.6232 -0.2811
v  31.0546 7.5438 -4.2881
v  21.0686 7.0148 3.5439
v  21.4726 -0.6192 -0.2781
v  21.0686 7.0148 -4.0161
v  11.0706 6.8128 3.2289
v  11.2116 -0.1932 -0.2741
v  11.0706 6.8128 -3.7011
v  1.0716 7.0008 2.9459
v  0.9506 0.5678 -0.2711
v  1.0716 7.0008 -3.4181
v  -8.9074 7.6438 2.6899
v  -9.2874 1.7388 -0.2691
v  -8.9074 7.6438 -3.1621
v  -18.8394 8.8028 2.4099
v  -19.4604 3.4868 -0.2651
v  -18.8394 8.8028 -2.8821
v  -28.6884 10.5368 2.1129
v  -29.5124 5.8598 -0.2621
v  -28.6884 10.5368 -2.5851
v  -38.4044 12.9028 1.8029
v  -39.3794 8.8978 -0.2591
v  -38.4044 12.9028 -2.2751
v  -47.9284 15.9518 1.4859
v  -48.9904 12.6348 -0.2551
v  -47.9284 15.9518 -1.9581
v  -57.1884 19.7258 1.1589
v  -58.2534 17.1138 -0.2521
v  -57.1884 19.7258 -1.6311
v  -66.1014 24.2608 0.8159
v  -67.0664 22.3638 -0.2481
v  -66.1014 24.2608 -1.2881
v  -74.5704 29.5788 0.4659
v  -75.3244 28.3768 -0.2441
v  -74.5704 29.5788 -0.9381
v  -82.4884 35.6868 0.1129
v  -82.9184 35.1278 -0.2401
v  -82.4884 35.6868 -0.5851
v  -89.7384 42.5738 -0.2361
v  100.6476 15.0088 -0.1301
v  90.7396 13.6098 0.7309
v  100.6446 15.0478 -0.2401
v  90.7036 13.9608 -0.2701
v  100.6476 15.0088 -0.3491
v  90.7396 13.6098 -1.2601
v  80.8586 12.0528 1.6889
v  80.7776 12.7498 -0.3041
v  80.8586 12.0528 -2.2741
v  70.9826 10.4628 2.5979
v  70.8576 11.4888 -0.3361
v  70.9826 10.4628 -3.2371
v  61.0906 8.9628 3.3139
v  60.9346 10.2478 -0.3611
v  61.0906 8.9628 -3.9941
v  51.1606 7.6758 3.6899
v  50.9996 9.0988 -0.3751
v  51.1606 7.6758 -4.3931
v  41.1896 6.6638 3.7329
v  41.0456 8.1038 -0.3761
v  41.1896 6.6638 -4.4391
v  31.1826 5.9288 3.5899
v  31.0726 7.3198 -0.3711
v  31.1826 5.9288 -4.2881
v  21.1486 5.5048 3.3339
v  21.0796 6.8048 -0.3621
v  21.1486 5.5048 -4.0161
v  11.0986 5.4268 3.0369
v  11.0746 6.6198 -0.3521
v  11.0986 5.4268 -3.7011
v  1.0476 5.7288 2.7689
v  1.0686 6.8248 -0.3421
v  1.0476 5.7288 -3.4181
v  -8.9824 6.4758 2.5279
v  -8.9174 7.4818 -0.3341
v  -8.9824 6.4758 -3.1621
v  -18.9624 7.7508 2.2629
v  -18.8564 8.6568 -0.3241
v  -18.9624 7.7508 -2.8821
v  -28.8514 9.6118 1.9819
v  -28.7114 10.4088 -0.3141
v  -28.8514 9.6118 -2.5851
v  -38.5974 12.1108 1.6889
v  -38.4314 12.7928 -0.3041
v  -38.5974 12.1108 -2.2751
v  -48.1384 15.2958 1.3899
v  -47.9574 15.8608 -0.2931
v  -48.1384 15.2958 -1.9581
v  -57.3994 19.2098 1.0809
v  -57.2184 19.6538 -0.2821
v  -57.3994 19.2098 -1.6311
v  -66.2924 23.8858 0.7579
v  -66.1274 24.2088 -0.2711
v  -66.2924 23.8858 -1.2881
v  -74.7194 29.3408 0.4269
v  -74.5914 29.5458 -0.2591
v  -74.7194 29.3408 -0.9381
v  -82.5734 35.5758 0.0929
v  -82.5004 35.6708 -0.2481
v  -82.5734 35.5758 -0.5851
# 121 vertices

vn 0.1271 -0.4362 0.8909
vn 0.1318 -0.4347 0.8909
vn 0.2354 -0.8025 0.5482
vn 0.2976 -0.9547 -0.0043
vn 0.1268 -0.4276 -0.8950
vn 0.1361 -0.4254 -0.8947
vn 0.1405 -0.4324 0.8907
vn 0.3107 -0.9505 -0.0040
vn 0.1392 -0.4242 -0.8948
vn 0.1330 -0.4330 0.8915
vn 0.2889 -0.9574 -0.0038
vn 0.1261 -0.4260 -0.8959
vn 0.1090 -0.4366 0.8930
vn 0.2308 -0.9730 -0.0038
vn 0.0967 -0.4304 -0.8974
vn 0.0733 -0.4416 0.8942
vn 0.1503 -0.9886 -0.0042
vn 0.0601 -0.4353 -0.8983
vn 0.0396 -0.4455 0.8944
vn 0.0787 -0.9969 -0.0044
vn 0.0302 -0.4383 -0.8983
vn 0.0146 -0.4475 0.8942
vn 0.0241 -0.9997 -0.0044
vn 0.0066 -0.4398 -0.8981
vn -0.0065 -0.4482 0.8939
vn -0.0215 -0.9998 -0.0043
vn -0.0130 -0.4400 -0.8979
vn -0.0237 -0.4479 0.8938
vn -0.0584 -0.9983 -0.0042
vn -0.0287 -0.4393 -0.8979
vn -0.0394 -0.4467 0.8938
vn -0.0946 -0.9955 -0.0042
vn -0.0451 -0.4378 -0.8979
vn -0.0597 -0.4445 0.8938
vn -0.1424 -0.9898 -0.0042
vn -0.0673 -0.4350 -0.8979
vn -0.0855 -0.4405 0.8937
vn -0.2005 -0.9797 -0.0042
vn -0.0934 -0.4304 -0.8978
vn -0.1133 -0.4345 0.8935
vn -0.2631 -0.9648 -0.0041
vn -0.1213 -0.4235 -0.8977
vn -0.1429 -0.4259 0.8934
vn -0.3295 -0.9441 -0.0040
vn -0.1509 -0.4140 -0.8977
vn -0.1743 -0.4143 0.8933
vn -0.4001 -0.9165 -0.0040
vn -0.1823 -0.4013 -0.8976
vn -0.2077 -0.3989 0.8932
vn -0.4748 -0.8801 -0.0039
vn -0.2156 -0.3846 -0.8975
vn -0.2422 -0.3793 0.8930
vn -0.5515 -0.8342 -0.0038
vn -0.2494 -0.3638 -0.8975
vn -0.2767 -0.3552 0.8929
vn -0.6278 -0.7784 -0.0037
vn -0.2830 -0.3385 -0.8974
vn -0.3105 -0.3264 0.8928
vn -0.6440 -0.6662 -0.3760
vn -0.3108 -0.3143 -0.8970
vn -0.7375 -0.6754 -0.0044
vn 0.1036 -0.9375 -0.3322
vn 0.1075 -0.9371 -0.3322
vn 0.1083 -0.9874 -0.1155
vn 0.1149 -0.9934 0.0018
vn 0.1014 -0.9365 0.3356
vn 0.1090 -0.9357 0.3356
vn 0.1169 -0.9359 -0.3322
vn 0.1236 -0.9923 0.0018
vn 0.1161 -0.9348 0.3356
vn 0.1193 -0.9356 -0.3322
vn 0.1251 -0.9921 0.0018
vn 0.1166 -0.9347 0.3356
vn 0.1149 -0.9362 -0.3323
vn 0.1194 -0.9928 0.0018
vn 0.1106 -0.9355 0.3357
vn 0.1038 -0.9375 -0.3323
vn 0.1071 -0.9942 0.0018
vn 0.0983 -0.9368 0.3356
vn 0.0872 -0.9392 -0.3322
vn 0.0889 -0.9960 0.0018
vn 0.0806 -0.9385 0.3356
vn 0.0653 -0.9409 -0.3322
vn 0.0649 -0.9979 0.0018
vn 0.0572 -0.9403 0.3356
vn 0.0379 -0.9424 -0.3322
vn 0.0350 -0.9994 0.0018
vn 0.0281 -0.9416 0.3356
vn 0.0049 -0.9432 -0.3322
vn -0.0009 -1.0000 0.0018
vn -0.0066 -0.9420 0.3356
vn -0.0337 -0.9426 -0.3321
vn -0.0430 -0.9991 0.0018
vn -0.0473 -0.9408 0.3356
vn -0.0784 -0.9400 -0.3321
vn -0.0915 -0.9958 0.0017
vn -0.0940 -0.9373 0.3356
vn -0.1291 -0.9344 -0.3321
vn -0.1462 -0.9892 0.0017
vn -0.1464 -0.9306 0.3356
vn -0.1853 -0.9249 -0.3320
vn -0.2067 -0.9784 0.0017
vn -0.2042 -0.9196 0.3356
vn -0.2466 -0.9105 -0.3319
vn -0.2725 -0.9622 0.0017
vn -0.2670 -0.9034 0.3356
vn -0.3124 -0.8901 -0.3319
vn -0.3430 -0.9393 0.0017
vn -0.3341 -0.8808 0.3355
vn -0.3821 -0.8625 -0.3318
vn -0.4175 -0.9087 0.0016
vn -0.4048 -0.8506 0.3355
vn -0.4547 -0.8266 -0.3317
vn -0.4948 -0.8690 0.0016
vn -0.4779 -0.8118 0.3355
vn -0.5289 -0.7812 -0.3317
vn -0.5735 -0.8192 0.0016
vn -0.5522 -0.7632 0.3355
vn -0.6032 -0.7254 -0.3316
vn -0.6425 -0.7629 0.0722
vn -0.6140 -0.7145 0.3352
vn -0.6902 -0.7237 0.0018
# 122 vertex normals

vt 0.9999 0.3629 0.0000
vt 0.9477 0.3389 0.0000
vt 1.0000 0.3577 0.0000
vt 0.9488 0.2912 0.0000
vt 0.0000 0.3577 0.0000
vt 0.0512 0.2912 0.0000
vt 0.0001 0.3629 0.0000
vt 0.0523 0.3389 0.0000
vt 0.8955 0.3122 0.0000
vt 0.8980 0.2174 0.0000
vt 0.1020 0.2174 0.0000
vt 0.1045 0.3122 0.0000
vt 0.8434 0.2842 0.0000
vt 0.8472 0.1448 0.0000
vt 0.1528 0.1448 0.0000
vt 0.1566 0.2842 0.0000
vt 0.7912 0.2565 0.0000
vt 0.7960 0.0818 0.0000
vt 0.2040 0.0818 0.0000
vt 0.2088 0.2565 0.0000
vt 0.7390 0.2304 0.0000
vt 0.7440 0.0370 0.0000
vt 0.2560 0.0370 0.0000
vt 0.2610 0.2304 0.0000
vt 0.6868 0.2074 0.0000
vt 0.6912 0.0116 0.0000
vt 0.3088 0.0116 0.0000
vt 0.3132 0.2074 0.0000
vt 0.6344 0.1891 0.0000
vt 0.6378 0.0000 0.0000
vt 0.3622 0.0000 0.0000
vt 0.3656 0.1891 0.0000
vt 0.5820 0.1768 0.0000
vt 0.5841 0.0001 0.0000
vt 0.4159 0.0001 0.0000
vt 0.4180 0.1768 0.0000
vt 0.5295 0.1721 0.0000
vt 0.5302 0.0100 0.0000
vt 0.4698 0.0100 0.0000
vt 0.4705 0.1721 0.0000
vt 0.4769 0.1765 0.0000
vt 0.4763 0.0276 0.0000
vt 0.5237 0.0276 0.0000
vt 0.5231 0.1765 0.0000
vt 0.4245 0.1914 0.0000
vt 0.4225 0.0547 0.0000
vt 0.5775 0.0547 0.0000
vt 0.5755 0.1914 0.0000
vt 0.3724 0.2182 0.0000
vt 0.3691 0.0952 0.0000
vt 0.6309 0.0952 0.0000
vt 0.6276 0.2182 0.0000
vt 0.3206 0.2584 0.0000
vt 0.3163 0.1501 0.0000
vt 0.6837 0.1501 0.0000
vt 0.6794 0.2584 0.0000
vt 0.2696 0.3131 0.0000
vt 0.2645 0.2204 0.0000
vt 0.7355 0.2204 0.0000
vt 0.7304 0.3131 0.0000
vt 0.2196 0.3837 0.0000
vt 0.2140 0.3069 0.0000
vt 0.7860 0.3069 0.0000
vt 0.7804 0.3837 0.0000
vt 0.1710 0.4711 0.0000
vt 0.1654 0.4106 0.0000
vt 0.8346 0.4106 0.0000
vt 0.8290 0.4711 0.0000
vt 0.1241 0.5761 0.0000
vt 0.1191 0.5321 0.0000
vt 0.8809 0.5321 0.0000
vt 0.8759 0.5761 0.0000
vt 0.0797 0.6992 0.0000
vt 0.0757 0.6713 0.0000
vt 0.9243 0.6713 0.0000
vt 0.9203 0.6992 0.0000
vt 0.0381 0.8406 0.0000
vt 0.0358 0.8276 0.0000
vt 0.9642 0.8276 0.0000
vt 0.9619 0.8406 0.0000
vt 0.0000 1.0000 0.0000
vt 1.0000 1.0000 0.0000
vt 0.5273 0.0000 0.0000
vt 0.6326 0.0520 0.0000
vt 0.5138 0.0000 0.0000
vt 0.5101 0.0522 0.0000
vt 0.5005 0.0000 0.0000
vt 0.3890 0.0520 0.0000
vt 0.7498 0.1039 0.0000
vt 0.5060 0.1044 0.0000
vt 0.2649 0.1039 0.0000
vt 0.8611 0.1558 0.0000
vt 0.5020 0.1565 0.0000
vt 0.1471 0.1558 0.0000
vt 0.9487 0.2078 0.0000
vt 0.4990 0.2086 0.0000
vt 0.0544 0.2078 0.0000
vt 0.9948 0.2599 0.0000
vt 0.4973 0.2608 0.0000
vt 0.0055 0.2599 0.0000
vt 1.0000 0.3123 0.0000
vt 0.4971 0.3131 0.0000
vt 0.0000 0.3123 0.0000
vt 0.9825 0.3649 0.0000
vt 0.4978 0.3654 0.0000
vt 0.0185 0.3649 0.0000
vt 0.9512 0.4176 0.0000
vt 0.4989 0.4179 0.0000
vt 0.0517 0.4176 0.0000
vt 0.9148 0.4704 0.0000
vt 0.5002 0.4705 0.0000
vt 0.0902 0.4704 0.0000
vt 0.8820 0.5231 0.0000
vt 0.5013 0.5230 0.0000
vt 0.1249 0.5231 0.0000
vt 0.8525 0.5758 0.0000
vt 0.5023 0.5755 0.0000
vt 0.1562 0.5758 0.0000
vt 0.8202 0.6283 0.0000
vt 0.5035 0.6277 0.0000
vt 0.1904 0.6283 0.0000
vt 0.7857 0.6802 0.0000
vt 0.5047 0.6795 0.0000
vt 0.2269 0.6802 0.0000
vt 0.7499 0.7314 0.0000
vt 0.5060 0.7305 0.0000
vt 0.2648 0.7314 0.0000
vt 0.7133 0.7815 0.0000
vt 0.5073 0.7805 0.0000
vt 0.3035 0.7815 0.0000
vt 0.6755 0.8301 0.0000
vt 0.5086 0.8292 0.0000
vt 0.3436 0.8301 0.0000
vt 0.6359 0.8769 0.0000
vt 0.5100 0.8760 0.0000
vt 0.3855 0.8769 0.0000
vt 0.5954 0.9211 0.0000
vt 0.5114 0.9204 0.0000
vt 0.4284 0.9211 0.0000
vt 0.5546 0.9624 0.0000
vt 0.5129 0.9620 0.0000
vt 0.4716 0.9624 0.0000
vt 0.5143 1.0000 0.0000
# 143 texture coords

g newboat_whole
s off
f 1/1/1 2/2/2 3/3/3 
f 3/3/3 2/2/2 4/4/4 
f 3/5/3 4/6/4 5/7/5 
f 5/7/5 4/6/4 6/8/6 
f 2/2/2 7/9/7 4/4/4 
f 4/4/4 7/9/7 8/10/8 
f 4/6/4 8/11/8 6/8/6 
f 6/8/6 8/11/8 9/12/9 
f 7/9/7 10/13/10 8/10/8 
f 8/10/8 10/13/10 11/14/11 
f 8/11/8 11/15/11 9/12/9 
f 9/12/9 11/15/11 12/16/12 
f 10/13/10 13/17/13 11/14/11 
f 11/14/11 13/17/13 14/18/14 
f 11/15/11 14/19/14 12/16/12 
f 12/16/12 14/19/14 15/20/15 
f 13/17/13 16/21/16 14/18/14 
f 14/18/14 16/21/16 17/22/17 
f 14/19/14 17/23/17 15/20/15 
f 15/20/15 17/23/17 18/24/18 
f 16/21/16 19/25/19 17/22/17 
f 17/22/17 19/25/19 20/26/20 
f 17/23/17 20/27/20 18/24/18 
f 18/24/18 20/27/20 21/28/21 
f 19/25/19 22/29/22 20/26/20 
f 20/26/20 22/29/22 23/30/23 
f 20/27/20 23/31/23 21/28/21 
f 21/28/21 23/31/23 24/32/24 
f 22/29/22 25/33/25 23/30/23 
f 23/30/23 25/33/25 26/34/26 
f 23/31/23 26/35/26 24/32/24 
f 24/32/24 26/35/26 27/36/27 
f 25/33/25 28/37/28 26/34/26 
f 26/34/26 28/37/28 29/38/29 
f 26/35/26 29/39/29 27/36/27 
f 27/36/27 29/39/29 30/40/30 
f 28/37/28 31/41/31 29/38/29 
f 29/38/29 31/41/31 32/42/32 
f 29/39/29 32/43/32 30/40/30 
f 30/40/30 32/43/32 33/44/33 
f 31/41/31 34/45/34 32/42/32 
f 32/42/32 34/45/34 35/46/35 
f 32/43/32 35/47/35 33/44/33 
f 33/44/33 35/47/35 36/48/36 
f 34/45/34 37/49/37 35/46/35 
f 35/46/35 37/49/37 38/50/38 
f 35/47/35 38/51/38 36/48/36 
f 36/48/36 38/51/38 39/52/39 
f 37/49/37 40/53/40 38/50/38 
f 38/50/38 40/53/40 41/54/41 
f 38/51/38 41/55/41 39/52/39 
f 39/52/39 41/55/41 42/56/42 
f 40/53/40 43/57/43 41/54/41 
f 41/54/41 43/57/43 44/58/44 
f 41/55/41 44/59/44 42/56/42 
f 42/56/42 44/59/44 45/60/45 
f 43/57/43 46/61/46 44/58/44 
f 44/58/44 46/61/46 47/62/47 
f 44/59/44 47/63/47 45/60/45 
f 45/60/45 47/63/47 48/64/48 
f 46/61/46 49/65/49 47/62/47 
f 47/62/47 49/65/49 50/66/50 
f 47/63/47 50/67/50 48/64/48 
f 48/64/48 50/67/50 51/68/51 
f 49/65/49 52/69/52 50/66/50 
f 50/66/50 52/69/52 53/70/53 
f 50/67/50 53/71/53 51/68/51 
f 51/68/51 53/71/53 54/72/54 
f 52/69/52 55/73/55 53/70/53 
f 53/70/53 55/73/55 56/74/56 
f 53/71/53 56/75/56 54/72/54 
f 54/72/54 56/75/56 57/76/57 
f 55/73/55 58/77/58 56/74/56 
f 56/74/56 58/77/58 59/78/59 
f 56/75/56 59/79/59 57/76/57 
f 57/76/57 59/79/59 60/80/60 
f 58/77/58 61/81/61 59/78/59 
f 59/79/59 61/82/61 60/80/60 
f 62/83/62 63/84/63 64/85/64 
f 64/85/64 63/84/63 65/86/65 
f 64/85/64 65/86/65 66/87/66 
f 66/87/66 65/86/65 67/88/67 
f 63/84/63 68/89/68 65/86/65 
f 65/86/65 68/89/68 69/90/69 
f 65/86/65 69/90/69 67/88/67 
f 67/88/67 69/90/69 70/91/70 
f 68/89/68 71/92/71 69/90/69 
f 69/90/69 71/92/71 72/93/72 
f 69/90/69 72/93/72 70/91/70 
f 70/91/70 72/93/72 73/94/73 
f 71/92/71 74/95/74 72/93/72 
f 72/93/72 74/95/74 75/96/75 
f 72/93/72 75/96/75 73/94/73 
f 73/94/73 75/96/75 76/97/76 
f 74/95/74 77/98/77 75/96/75 
f 75/96/75 77/98/77 78/99/78 
f 75/96/75 78/99/78 76/97/76 
f 76/97/76 78/99/78 79/100/79 
f 77/98/77 80/101/80 78/99/78 
f 78/99/78 80/101/80 81/102/81 
f 78/99/78 81/102/81 79/100/79 
f 79/100/79 81/102/81 82/103/82 
f 80/101/80 83/104/83 81/102/81 
f 81/102/81 83/104/83 84/105/84 
f 81/102/81 84/105/84 82/103/82 
f 82/103/82 84/105/84 85/106/85 
f 83/104/83 86/107/86 84/105/84 
f 84/105/84 86/107/86 87/108/87 
f 84/105/84 87/108/87 85/106/85 
f 85/106/85 87/108/87 88/109/88 
f 86/107/86 89/110/89 87/108/87 
f 87/108/87 89/110/89 90/111/90 
f 87/108/87 90/111/90 88/109/88 
f 88/109/88 90/111/90 91/112/91 
f 89/110/89 92/113/92 90/111/90 
f 90/111/90 92/113/92 93/114/93 
f 90/111/90 93/114/93 91/112/91 
f 91/112/91 93/114/93 94/115/94 
f 92/113/92 95/116/95 93/114/93 
f 93/114/93 95/116/95 96/117/96 
f 93/114/93 96/117/96 94/115/94 
f 94/115/94 96/117/96 97/118/97 
f 95/116/95 98/119/98 96/117/96 
f 96/117/96 98/119/98 99/120/99 
f 96/117/96 99/120/99 97/118/97 
f 97/118/97 99/120/99 100/121/100 
f 98/119/98 101/122/101 99/120/99 
f 99/120/99 101/122/101 102/123/102 
f 99/120/99 102/123/102 100/121/100 
f 100/121/100 102/123/102 103/124/103 
f 101/122/101 104/125/104 102/123/102 
f 102/123/102 104/125/104 105/126/105 
f 102/123/102 105/126/105 103/124/103 
f 103/124/103 105/126/105 106/127/106 
f 104/125/104 107/128/107 105/126/105 
f 105/126/105 107/128/107 108/129/108 
f 105/126/105 108/129/108 106/127/106 
f 106/127/106 108/129/108 109/130/109 
f 107/128/107 110/131/110 108/129/108 
f 108/129/108 110/131/110 111/132/111 
f 108/129/108 111/132/111 109/130/109 
f 109/130/109 111/132/111 112/133/112 
f 110/131/110 113/134/113 111/132/111 
f 111/132/111 113/134/113 114/135/114 
f 111/132/111 114/135/114 112/133/112 
f 112/133/112 114/135/114 115/136/115 
f 113/134/113 116/137/116 114/135/114 
f 114/135/114 116/137/116 117/138/117 
f 114/135/114 117/138/117 115/136/115 
f 115/136/115 117/138/117 118/139/118 
f 116/137/116 119/140/119 117/138/117 
f 117/138/117 119/140/119 120/141/120 
f 117/138/117 120/141/120 118/139/118 
f 118/139/118 120/141/120 121/142/121 
f 119/140/119 61/143/122 120/141/120 
f 120/141/120 61/143/122 121/142/121 
# 156 faces

